<svg id="fullscreen" xmlns="http://www.w3.org/2000/svg" width="20" height="20.179" viewBox="0 0 20 20.179">
    <defs>
        <style>
            .cls-1{fill:#252f44}
        </style>
    </defs>
    <g id="Group_3346" data-name="Group 3346">
        <path id="Path_7191" data-name="Path 7191" class="cls-1" d="M21.653 125H7.635a.6.6 0 0 0-.617.573v7.863H3.5v-2.169a.6.6 0 0 0-.617-.573.6.6 0 0 0-.617.573v2.741a.6.6 0 0 0 .617.573h4.135v4a.6.6 0 0 0 .617.573h14.018a.6.6 0 0 0 .617-.573v-13.006a.6.6 0 0 0-.617-.575zm-.617 13.007H8.252v-11.86h12.784v11.862z" transform="translate(-2.27 -118.975)"/>
        <path id="Path_7192" data-name="Path 7192" class="cls-1" d="M3.024 9.355a.755.755 0 0 0 .755-.755V1.51h15.638V3.3a.755.755 0 0 0 1.51 0V.755A.755.755 0 0 0 20.172 0H3.024a.755.755 0 0 0-.755.755V8.6a.755.755 0 0 0 .755.755z" transform="translate(-2.269)"/>
        <path id="Path_7193" data-name="Path 7193" class="cls-1" d="M302.9 215.622a.753.753 0 0 0 .534-.221l3.126-3.126v1.753a.755.755 0 1 0 1.51 0v-3.576a.755.755 0 0 0-.755-.755h-3.576a.755.755 0 0 0 0 1.51h1.761l-3.126 3.126a.755.755 0 0 0 .534 1.289z" transform="translate(-291.174 -201.27)"/>
        <path id="Path_7194" data-name="Path 7194" class="cls-1" d="M208.18 326.909h3.576a.755.755 0 0 0 0-1.51H210l1.032-1.032a.755.755 0 0 0-1.068-1.068l-1.032 1.032v-1.753a.755.755 0 1 0-1.51 0v3.576a.755.755 0 0 0 .758.755z" transform="translate(-199.813 -309.129)"/>
    </g>
</svg>
