<svg xmlns="http://www.w3.org/2000/svg" width="25.296" height="20.553" viewBox="0 0 25.296 20.553">
  <path id="Path_1688" data-name="Path 1688" d="M25.3,50.433a10.812,10.812,0,0,1-2.988.819,5.157,5.157,0,0,0,2.281-2.866A10.364,10.364,0,0,1,21.3,49.641a5.186,5.186,0,0,0-8.971,3.546,5.34,5.34,0,0,0,.12,1.183A14.679,14.679,0,0,1,1.761,48.945a5.187,5.187,0,0,0,1.594,6.931,5.121,5.121,0,0,1-2.343-.639v.057a5.21,5.21,0,0,0,4.155,5.1,5.177,5.177,0,0,1-1.36.171,4.585,4.585,0,0,1-.982-.089,5.235,5.235,0,0,0,4.846,3.613A10.42,10.42,0,0,1,1.241,66.3,9.714,9.714,0,0,1,0,66.226a14.6,14.6,0,0,0,7.956,2.327A14.658,14.658,0,0,0,22.716,53.8c0-.229-.008-.451-.019-.67A10.346,10.346,0,0,0,25.3,50.433Z" transform="translate(0 -48)" fill="#252f44"/>
</svg>
