<svg id="Group_3339" data-name="Group 3339" xmlns="http://www.w3.org/2000/svg" width="20.397" height="20.419" viewBox="0 0 20.397 20.419">
  <path id="Path_5112" data-name="Path 5112" d="M68.494,88.74l1.428-5.073a10.181,10.181,0,1,1,3.8,3.727Zm5.5-3.2.312.19a8.455,8.455,0,1,0-2.722-2.661l.21.327-.823,2.922Z" transform="translate(-68.494 -68.321)" fill="#252f44"/>
  <path id="Path_5113" data-name="Path 5113" d="M149.886,152.863l-.661-.036a.8.8,0,0,0-.568.194,3.011,3.011,0,0,0-.99,1.517,4.6,4.6,0,0,0,1.066,3.6,10.724,10.724,0,0,0,5.78,4.2,2.817,2.817,0,0,0,2.386-.3,2.134,2.134,0,0,0,.928-1.354l.106-.493a.342.342,0,0,0-.192-.383l-2.234-1.03a.343.343,0,0,0-.414.1l-.877,1.137a.251.251,0,0,1-.282.084,6.866,6.866,0,0,1-3.716-3.179.253.253,0,0,1,.032-.283l.838-.969a.342.342,0,0,0,.056-.358l-.963-2.253A.342.342,0,0,0,149.886,152.863Z" transform="translate(-142.536 -147.418)" fill="#252f44"/>
</svg>
