<?xml version="1.0" encoding="utf-8"?>
<!-- Generator: Adobe Illustrator 21.1.0, SVG Export Plug-In . SVG Version: 6.00 Build 0)  -->
<svg version="1.1" id="Layer_1" xmlns="http://www.w3.org/2000/svg" xmlns:xlink="http://www.w3.org/1999/xlink" x="0px" y="0px"
	 viewBox="0 0 682.5 219" style="enable-background:new 0 0 682.5 219;" xml:space="preserve">
<style type="text/css">
	.st0{fill:#FFFFFF;}
	.st1{fill:#0069B5;}
	.st2{fill:#EBF3F9;}
	.st3{fill:url(#SVGID_1_);}
	.st4{fill:url(#SVGID_2_);}
	.st5{fill:url(#SVGID_3_);}
	.st6{fill:#24A0D0;}
	.st7{opacity:0.1;fill:none;stroke:#0069B5;stroke-width:1.5;stroke-linecap:round;stroke-linejoin:round;stroke-miterlimit:10;}
	.st8{fill:#FFFFFF;stroke:#0069B5;stroke-width:1.5;stroke-miterlimit:10;}
	.st9{fill:#FFFFFF;stroke:#0069B5;stroke-width:1.5;stroke-linecap:round;stroke-linejoin:round;stroke-miterlimit:10;}
	.st10{fill:url(#SVGID_4_);}
	.st11{fill:none;stroke:#0069B5;stroke-width:1.5;stroke-miterlimit:10;}
	.st12{fill:#29C76F;}
	.st13{fill:url(#SVGID_5_);stroke:#FFFFFF;stroke-miterlimit:10;}
	.st14{fill:none;stroke:#0069B5;stroke-miterlimit:10;}
	.st15{fill:none;stroke:#0069B5;stroke-width:1.5;stroke-linecap:round;stroke-linejoin:round;stroke-miterlimit:10;}
	.st16{fill:none;stroke:#29C76F;stroke-width:1.5;stroke-linecap:round;stroke-linejoin:round;stroke-miterlimit:10;}
	.st17{fill:url(#SVGID_6_);}
	.st18{fill:url(#SVGID_7_);}
	.st19{fill:url(#SVGID_8_);}
	.st20{fill:url(#SVGID_9_);}
	.st21{fill:url(#SVGID_10_);}
	.st22{fill:url(#SVGID_11_);}
	.st23{fill:url(#SVGID_12_);}
	.st24{fill:url(#SVGID_13_);}
	.st25{fill:none;}
	.st26{fill:url(#SVGID_14_);}
	.st27{fill:url(#SVGID_15_);}
	.st28{fill:url(#SVGID_16_);}
	.st29{fill:url(#SVGID_17_);}
	.st30{fill:url(#SVGID_18_);}
	.st31{fill:url(#SVGID_19_);}
	.st32{fill:url(#SVGID_20_);}
	.st33{fill:url(#SVGID_21_);}
	.st34{fill:url(#SVGID_22_);}
	.st35{fill:url(#SVGID_23_);}
	.st36{fill:url(#SVGID_24_);}
	.st37{fill:url(#SVGID_25_);}
	.st38{fill:url(#SVGID_26_);}
	.st39{fill:none;stroke:#29C76F;stroke-width:0.75;stroke-linecap:round;stroke-linejoin:round;}
	.st40{fill:none;stroke:url(#SVGID_27_);stroke-width:1.5;stroke-linecap:round;stroke-linejoin:round;stroke-miterlimit:10;}
	.st41{fill:url(#SVGID_28_);}
	.st42{fill:#29C76F;stroke:#0069B5;stroke-width:1.5;stroke-linecap:round;stroke-linejoin:round;stroke-miterlimit:10;}
	.st43{fill:url(#SVGID_29_);}
	.st44{fill:url(#SVGID_30_);}
	.st45{fill:url(#SVGID_31_);}
	.st46{fill:url(#SVGID_32_);}
	.st47{fill:url(#SVGID_33_);}
	.st48{fill:url(#SVGID_34_);}
	.st49{fill:url(#SVGID_35_);}
	.st50{fill:none;stroke:url(#SVGID_36_);stroke-width:1.5;stroke-linecap:round;stroke-linejoin:round;stroke-miterlimit:10;}
	.st51{fill:none;stroke:url(#SVGID_37_);stroke-width:1.5;stroke-linecap:round;stroke-linejoin:round;stroke-miterlimit:10;}
	.st52{fill:#404041;}
</style>
<g>
	<g>
		<linearGradient id="SVGID_1_" gradientUnits="userSpaceOnUse" x1="22.8525" y1="109.4945" x2="659.6133" y2="109.4945">
			<stop  offset="0" style="stop-color:#24A0D0"/>
			<stop  offset="1" style="stop-color:#0069B5"/>
		</linearGradient>
		<path class="st3" d="M116.4,86.2c-1.8-23.5-23.3-34.3-42-31.1c-8.8,1.5-16.2,5.9-23,11.4c-0.6,0.5-1.3,0.9-2.3,1.7
			c0-3.1-0.1-5.7,0-8.3c0.2-2.2-0.7-2.7-2.8-2.7c-6.9,0.1-13.9,0.1-20.8,0c-2.1,0-2.6,0.6-2.6,2.7c0.1,33.7,0,67.4,0,101.1
			c0,0.8,0.1,1.6,0.1,2.5c8.7,0,17.3,0,26,0c0-1,0-1.9,0-2.8c0.2-18.7,0.2-37.5,0.5-56.2c0.1-7.1,2.6-13.6,7.5-19
			c5.6-6.1,12.5-8.2,20.5-6.2c7.4,1.9,11,7.4,11.9,14.4c0.9,6.7,1.2,13.5,1.3,20.3c0.2,15.4,0.1,30.8,0.1,46.2c0,0.7-0.2,1.4,0.1,2
			c0.2,0.5,0.8,1.3,1.2,1.4c8.1,0.1,16.1,0.1,24.6,0.1c0-1.1,0-1.9,0-2.7c0-22.3,0-44.5,0-66.8C116.7,91.4,116.6,88.8,116.4,86.2z
			 M659.6,93.4c0-3.1-0.4-6.2-0.8-9.3c-2.5-21.3-23-32.1-41.6-28.9c-7.8,1.3-14.5,4.9-20.7,9.6c-1.4,1.1-2.8,2.1-4.8,3.6
			c0-3.4-0.1-6.1,0-8.8c0.1-1.7-0.5-2.3-2.3-2.3c-6.9,0.1-13.9,0.1-20.8,0c-2.2,0-2.9,0.5-2.9,2.8c0.1,15.6,0.1,31.2,0.1,46.8
			c0,18,0,36,0,54c0,2.2,0.7,2.8,2.8,2.7c6.6-0.1,13.3,0,19.9,0c3.3,0,3.3,0,3.3-3.4c0.2-19.1,0.2-38.2,0.9-57.3
			c0.3-8.2,3.8-15.4,10.6-20.4c9.5-7,26.4-5.5,29,11.1c0.8,5.1,1.2,10.4,1.2,15.6c0.2,17.3,0.1,34.5,0.1,51.8c0,0.9,0.1,1.7,0.1,2.6
			c8.8,0,17.3,0,26,0c0-0.9,0-1.7,0-2.5C659.6,138.4,659.6,115.9,659.6,93.4z M276.7,57.2c-7.2,0-14.3,0.1-21.5-0.1
			c-2.1,0-3,0.7-3.8,2.5c-9.4,20.8-18.9,41.5-28.3,62.3c-0.3,0.6-0.7,1.2-1.2,2.2c-0.5-1.2-0.9-1.9-1.2-2.6
			c-8.3-20-16.6-40.1-24.9-60.1c-2.1-5.1-0.7-4.2-6.3-4.3c-7.2-0.1-14.5,0-22.1,0c0.5,1.2,0.7,1.9,1,2.7
			c12.8,31.1,25.5,62.2,38.3,93.2c0.8,1.9,0.7,3.4-0.1,5.3c-6.6,13.9-13,27.8-19.5,41.7c-0.3,0.7-0.6,1.4-1,2.4
			c8.4,0,16.5-0.1,24.5,0c1.9,0,2.7-0.6,3.5-2.2c19.3-42.3,38.7-84.6,58.1-126.9c2.4-5.3,4.8-10.5,7.4-16.2
			C278.3,57.2,277.5,57.2,276.7,57.2z M156.2,57.2c-7.2,0.1-14.3,0.1-21.5,0c-2,0-2.5,0.6-2.5,2.5c0.1,33.8,0,67.5,0,101.3
			c0,0.8,0.1,1.6,0.1,2.4c8.7,0,17.2,0,26,0c0.1-0.8,0.1-1.4,0.1-2c0-34,0-68,0-101.9C158.5,57.7,158,57.2,156.2,57.2z M543.9,57.2
			c-7,0.1-14,0-21.1,0c-2.9,0-2.9,0-2.9,2.9c0,33.5,0,66.9,0,100.4c0,0.9,0,1.8,0,2.9c0.9,0.1,1.4,0.1,1.9,0.1
			c7.4,0,14.8-0.1,22.2,0.1c1.9,0,2.2-0.7,2.2-2.4c0-33.9,0-67.8,0-101.7C546.2,57.7,545.7,57.2,543.9,57.2z M533.1,13.7
			c-7.9-1.1-16.9,7-16.7,16.5c0.2,9.8,7.3,17.3,16.9,17.3c9.3,0,16.9-7.6,16.8-17C550,21.1,542.6,13.7,533.1,13.7z M145.3,13.7
			c-8.2-1.1-17,7.4-16.8,16.5c0.3,9.9,7.3,17.3,16.9,17.4c9.4,0,16.5-7.3,16.7-16.9C162.4,20.7,153.1,12.6,145.3,13.7z M501.3,57.2
			c-6.6,0.1-13.3,0-19.9,0c-4.5,0-3.9-0.5-4,3.9c0,2.5,0,5,0,7.4c-1.2-0.4-1.9-0.9-2.5-1.4c-10.3-9.1-22-13.6-35.9-12.4
			c-13.8,1.2-24.8,7.4-33.3,18c-11.4,14.3-13.5,30.9-10.6,48.3c4.1,23.9,24.1,41.1,45.5,42.3c13.1,0.7,24.7-2.1,34.4-11.2
			c0.6-0.5,1.2-1,1.8-1.4c0.2,0.1,0.4,0.2,0.5,0.3c-0.1,2.4-0.3,4.8-0.4,7.3c-0.4,11.3-6.3,18.5-17.2,21.3
			c-6.5,1.6-13.2,1.8-19.8,0.8c-6.1-0.9-11.6-3.1-16.1-7.6c-0.6-0.6-1.7-0.8-2.6-0.8c-8.1-0.1-16.3,0-24.4,0c-0.8,0-1.6,0-2.7,0
			c0.4,1.3,0.7,2.3,1.1,3.2c7.5,17.9,21.6,26.7,40.2,29.3c2.6,0.4,5.1,0.7,7.7,1c3.6,0,7.2,0,10.8,0c0.7-0.2,1.4-0.4,2.1-0.5
			c4-0.6,8-0.9,11.9-1.9c15.9-4.2,27.4-13.4,32.4-29.7c2.4-8,3.1-16.3,3.1-24.5c0.1-29.7,0-59.4,0.1-89.2
			C503.6,57.8,503,57.2,501.3,57.2z M478.5,112.9c-0.9,8.5-4.1,15.7-10.9,21c-9,6.8-19,7.5-29.2,3.6c-10-3.9-15.8-11.6-17.6-22.2
			c-1.1-6.5-0.8-13,2-19.1c5.3-11.3,14.3-17,30.3-17.1C467.5,78.8,480.5,93.5,478.5,112.9z M327.8,54.6
			c-29.1-0.3-54.9,24.4-55.2,55.2c-0.3,30.8,24.6,56.4,54.2,56.5c32.3,0.1,56.9-24,57-55.8C384.1,80,359.7,54.9,327.8,54.6z
			 M350.3,131.4c-7.9,9.4-18.2,12.3-29.8,9.5c-11.1-2.7-17.8-10.4-20.6-21.4c-0.7-2.9-0.9-6-1.3-9c0.3-13.6,7.1-24.7,18.4-29
			c18.3-7,38,3.8,40,24.6C358,115.4,356.4,124,350.3,131.4z"/>
	</g>
</g>
</svg>
