<svg data-name="Niyogin logo" xmlns="http://www.w3.org/2000/svg" width="112.288" height="33.838" viewBox="0 0 112.288 33.838">
    <g data-name="Group 3008">
        <path data-name="Path 1867" d="M39.387 26.4c-.317-4.144-4.109-6.048-7.406-5.484a8.809 8.809 0 0 0-4.056 2.01c-.106.088-.229.159-.406.3 0-.547-.018-1.005 0-1.464.035-.388-.123-.476-.494-.476-1.217.018-2.451.018-3.668 0-.37 0-.458.106-.458.476.018 5.942 0 11.885 0 17.827 0 .141.018.282.018.441H27.5v-.494c.035-3.3.035-6.612.088-9.91a4.987 4.987 0 0 1 1.322-3.35 3.471 3.471 0 0 1 3.615-1.093 2.756 2.756 0 0 1 2.1 2.539 30.248 30.248 0 0 1 .229 3.58c.035 2.716.018 5.431.018 8.147a.783.783 0 0 0 .018.353c.035.088.141.229.212.247 1.428.018 2.839.018 4.338.018V27.812c0-.494-.018-.952-.053-1.412zm95.784 1.27a12.865 12.865 0 0 0-.141-1.64 6.114 6.114 0 0 0-7.335-5.1 8.268 8.268 0 0 0-3.65 1.693c-.247.194-.494.37-.846.635 0-.6-.018-1.076 0-1.552.018-.3-.088-.406-.406-.406-1.217.018-2.451.018-3.668 0-.388 0-.511.088-.511.494.018 2.751.018 5.5.018 8.252v9.522c0 .388.123.494.494.476 1.164-.018 2.345 0 3.509 0 .582 0 .582 0 .582-.6.035-3.368.035-6.736.159-10.1a4.528 4.528 0 0 1 1.869-3.6c1.675-1.234 4.655-.97 5.114 1.957a17.9 17.9 0 0 1 .212 2.751c.035 3.051.018 6.083.018 9.134 0 .159.018.3.018.458h4.585v-.441c-.021-3.997-.021-7.965-.021-11.932zm-67.518-6.382c-1.27 0-2.522.018-3.791-.018a.621.621 0 0 0-.67.441c-1.658 3.668-3.333 7.318-4.99 10.985-.053.106-.123.212-.212.388-.088-.212-.159-.335-.212-.458-1.464-3.527-2.927-7.071-4.391-10.6-.37-.9-.123-.741-1.111-.758-1.27-.018-2.557 0-3.9 0 .088.212.123.335.176.476q3.386 8.226 6.754 16.434a1.085 1.085 0 0 1-.018.935c-1.164 2.451-2.292 4.9-3.438 7.353-.053.123-.106.247-.176.423 1.481 0 2.909-.018 4.32 0a.582.582 0 0 0 .617-.388q5.1-11.188 10.245-22.377c.423-.935.846-1.851 1.3-2.857-.221.021-.362.021-.503.021zm-21.248 0c-1.27.018-2.522.018-3.791 0-.353 0-.441.106-.441.441.018 5.96 0 11.9 0 17.862 0 .141.018.282.018.423h4.585a2.609 2.609 0 0 0 .018-.353V21.693c.017-.317-.072-.405-.389-.405zm68.364 0c-1.234.018-2.469 0-3.721 0-.511 0-.511 0-.511.511v18.215a2.633 2.633 0 0 0 .335.018c1.3 0 2.61-.018 3.915.018.335 0 .388-.123.388-.423V21.693c0-.317-.089-.405-.406-.405zm-1.9-7.67a2.881 2.881 0 0 0-2.945 2.909 2.972 2.972 0 1 0 2.945-2.909zm-68.382 0a2.909 2.909 0 0 0-2.962 2.909 3.008 3.008 0 0 0 2.98 3.068 2.989 2.989 0 0 0-.018-5.978zm62.774 7.67c-1.164.018-2.345 0-3.509 0-.794 0-.688-.088-.705.688v1.3a1.262 1.262 0 0 1-.441-.247 8.309 8.309 0 0 0-12.2.987 10.306 10.306 0 0 0-1.869 8.517A8.919 8.919 0 0 0 96.554 40a7.76 7.76 0 0 0 6.066-1.975 3.873 3.873 0 0 1 .317-.247.386.386 0 0 1 .088.053c-.018.423-.053.846-.071 1.287a3.708 3.708 0 0 1-3.033 3.756 8.957 8.957 0 0 1-3.491.141 4.86 4.86 0 0 1-2.839-1.34.679.679 0 0 0-.458-.141c-1.428-.018-2.874 0-4.3 0h-.476a5.14 5.14 0 0 0 .194.564 8.32 8.32 0 0 0 7.089 5.167c.458.071.9.123 1.358.176h1.9a2.818 2.818 0 0 1 .37-.088 20.793 20.793 0 0 0 2.1-.335 7.511 7.511 0 0 0 5.713-5.237 14.978 14.978 0 0 0 .547-4.32c.018-5.237 0-10.474.018-15.729.017-.338-.089-.444-.389-.444zm-4.02 9.822a5.03 5.03 0 0 1-7.071 4.338 4.805 4.805 0 0 1-3.1-3.915 5.659 5.659 0 0 1 .353-3.368c.935-1.993 2.522-3 5.343-3.015 2.534-.05 4.823 2.539 4.471 5.959zM76.664 20.829a9.851 9.851 0 0 0-.176 19.7 9.849 9.849 0 1 0 .176-19.7zm3.967 13.542a4.932 4.932 0 0 1-5.255 1.675 4.807 4.807 0 0 1-3.632-3.774 15.624 15.624 0 0 1-.229-1.587 5.323 5.323 0 0 1 3.244-5.114 5.088 5.088 0 0 1 7.053 4.338 5.721 5.721 0 0 1-1.181 4.463z" transform="translate(-22.9 -13.6)" style="fill:#fff"/>
    </g>
</svg>
