<svg id="social-twitter-circular-button" xmlns="http://www.w3.org/2000/svg" width="28.178" height="28.178" viewBox="0 0 28.178 28.178">
    <defs>
        <style>
            .cls-1{fill:#fff}
        </style>
    </defs>
    <path id="Path_18" data-name="Path 18" class="cls-1" d="M14.089 0a14.089 14.089 0 1 0 14.089 14.089A14.089 14.089 0 0 0 14.089 0zm0 25.977a11.888 11.888 0 1 1 11.888-11.888 11.887 11.887 0 0 1-11.888 11.888z"/>
    <path id="Path_19" data-name="Path 19" class="cls-1" d="M140.995 145.6a4.015 4.015 0 0 1-1.488.531 3.588 3.588 0 0 0 1.118-1.832 3.81 3.81 0 0 1-1.673.745 2.451 2.451 0 0 0-1.938-1.044c-1.48 0-2.681 1.51-2.681 3.373a4.154 4.154 0 0 0 .069.752 7.281 7.281 0 0 1-5.679-3.5 3.921 3.921 0 0 0 .813 4.456 1.467 1.467 0 0 1-1.171-.38 3.233 3.233 0 0 0 2.068 3.3 1.694 1.694 0 0 1-1.116.106 2.732 2.732 0 0 0 2.4 2.291 3.877 3.877 0 0 1-3.713 1.4 6.874 6.874 0 0 0 4.194 1.492c4.325 0 7.685-4.41 7.5-9.85V147.327a5.449 5.449 0 0 0 1.297-1.727z" transform="translate(-120.408 -136.553)"/>
</svg>
