<svg id="social-linkedin-circular-button" xmlns="http://www.w3.org/2000/svg" width="28.178" height="28.178" viewBox="0 0 28.178 28.178">
    <defs>
        <style>
            .cls-1{fill:#fff}
        </style>
    </defs>
    <path id="Path_20" data-name="Path 20" class="cls-1" d="M14.089 0a14.089 14.089 0 1 0 14.089 14.089A14.089 14.089 0 0 0 14.089 0zm0 25.977a11.888 11.888 0 1 1 11.888-11.888 11.888 11.888 0 0 1-11.888 11.888z"/>
    <g id="Group_27" data-name="Group 27" transform="translate(7.183 7.172)">
        <g id="Group_26" data-name="Group 26">
            <path id="Path_21" data-name="Path 21" class="cls-1" d="M128.094 141.714h2.592v-10.367h-2.592zm10.367-10.367a4.754 4.754 0 0 0-3.456 1.728v-1.728h-2.592v10.367h2.592v-6.048a2.2 2.2 0 0 1 2.592-1.728c1.1.072 1.691 1.525 1.728 1.728v6.048l2.582.012v-7.177a3.234 3.234 0 0 0-3.446-3.202zm-9.071-3.456a1.3 1.3 0 1 0 1.3 1.3 1.3 1.3 0 0 0-1.3-1.3z" transform="translate(-128.094 -127.891)"/>
        </g>
    </g>
</svg>
